<svg width="233" height="30" viewBox="0 0 233 30" fill="none" xmlns="http://www.w3.org/2000/svg">
<path d="M0.84 23L3.96 0.649998H13.02C15.16 0.649998 16.81 1.15 17.97 2.15C19.15 3.13 19.74 4.51 19.74 6.29C19.74 7.09 19.62 7.83 19.38 8.51C19.16 9.19 18.81 9.8 18.33 10.34C17.87 10.88 17.28 11.36 16.56 11.78L16.23 10.07C17.57 10.67 18.49 11.42 18.99 12.32C19.49 13.22 19.74 14.18 19.74 15.2C19.74 16.82 19.37 18.22 18.63 19.4C17.91 20.56 16.87 21.45 15.51 22.07C14.15 22.69 12.54 23 10.68 23H0.84ZM6.06 18.95H11.64C12.32 18.95 12.91 18.81 13.41 18.53C13.93 18.25 14.33 17.86 14.61 17.36C14.91 16.86 15.06 16.29 15.06 15.65C15.06 14.89 14.81 14.28 14.31 13.82C13.81 13.34 13.13 13.1 12.27 13.1H6.87L6.06 18.95ZM7.44 9.05H12.48C13 9.05 13.45 8.94 13.83 8.72C14.23 8.5 14.54 8.2 14.76 7.82C14.98 7.44 15.09 7 15.09 6.5C15.09 5.92 14.9 5.45 14.52 5.09C14.14 4.73 13.62 4.55 12.96 4.55H8.07L7.44 9.05ZM30.0087 23.36C28.3487 23.36 26.9087 23.01 25.6887 22.31C24.4687 21.59 23.5287 20.62 22.8687 19.4C22.2287 18.18 21.9087 16.83 21.9087 15.35C21.9087 14.09 22.1287 12.92 22.5687 11.84C23.0087 10.74 23.6287 9.77 24.4287 8.93C25.2287 8.09 26.1587 7.44 27.2187 6.98C28.2787 6.5 29.4287 6.26 30.6687 6.26C32.3287 6.26 33.7287 6.59 34.8687 7.25C36.0087 7.89 36.8687 8.77 37.4487 9.89C38.0487 11.01 38.3487 12.28 38.3487 13.7C38.3487 14.08 38.3187 14.46 38.2587 14.84C38.1987 15.22 38.1187 15.63 38.0187 16.07H25.7187L25.9587 12.77H35.6787L33.4287 14.27C33.6887 13.43 33.7387 12.68 33.5787 12.02C33.4187 11.36 33.0787 10.84 32.5587 10.46C32.0587 10.06 31.4187 9.86 30.6387 9.86C29.6187 9.86 28.8087 10.12 28.2087 10.64C27.6087 11.16 27.1687 11.85 26.8887 12.71C26.6287 13.57 26.4987 14.52 26.4987 15.56C26.4987 16.38 26.6387 17.09 26.9187 17.69C27.1987 18.27 27.6087 18.71 28.1487 19.01C28.6887 19.31 29.3387 19.46 30.0987 19.46C30.9187 19.46 31.6387 19.29 32.2587 18.95C32.8787 18.61 33.3587 18.16 33.6987 17.6L37.2387 19.43C36.8587 20.23 36.3087 20.93 35.5887 21.53C34.8687 22.11 34.0287 22.56 33.0687 22.88C32.1287 23.2 31.1087 23.36 30.0087 23.36ZM40.9519 29.66C40.4119 29.66 39.9219 29.61 39.4819 29.51C39.0419 29.41 38.6619 29.27 38.3419 29.09L38.6119 25.49C38.8919 25.57 39.2119 25.63 39.5719 25.67C39.9319 25.73 40.2419 25.76 40.5019 25.76C41.0619 25.76 41.5319 25.65 41.9119 25.43C42.3119 25.21 42.6519 24.93 42.9319 24.59C43.2119 24.25 43.4619 23.91 43.6819 23.57L45.1819 21.14L44.7619 24.89L40.1419 6.62H44.7619L47.7019 19.61H45.8719L52.4719 6.62H57.5419L47.9719 24.65C47.3719 25.79 46.7119 26.73 45.9919 27.47C45.2719 28.21 44.4919 28.76 43.6519 29.12C42.8119 29.48 41.9119 29.66 40.9519 29.66ZM65.7858 23.36C64.2258 23.36 62.8158 23.02 61.5558 22.34C60.2958 21.64 59.2958 20.68 58.5558 19.46C57.8158 18.24 57.4458 16.85 57.4458 15.29C57.4458 14.03 57.6858 12.85 58.1658 11.75C58.6458 10.65 59.3158 9.69 60.1758 8.87C61.0358 8.05 62.0258 7.41 63.1458 6.95C64.2658 6.49 65.4658 6.26 66.7458 6.26C68.3058 6.26 69.7158 6.61 70.9758 7.31C72.2358 7.99 73.2258 8.94 73.9458 10.16C74.6858 11.36 75.0558 12.75 75.0558 14.33C75.0558 15.59 74.8158 16.77 74.3358 17.87C73.8558 18.95 73.1858 19.91 72.3258 20.75C71.4658 21.57 70.4758 22.21 69.3558 22.67C68.2358 23.13 67.0458 23.36 65.7858 23.36ZM65.8458 19.31C66.7458 19.31 67.5358 19.09 68.2158 18.65C68.8958 18.19 69.4258 17.58 69.8058 16.82C70.1858 16.06 70.3758 15.21 70.3758 14.27C70.3758 13.49 70.2258 12.81 69.9258 12.23C69.6258 11.63 69.1958 11.16 68.6358 10.82C68.0958 10.48 67.4458 10.31 66.6858 10.31C65.7858 10.31 64.9858 10.54 64.2858 11C63.6058 11.44 63.0758 12.04 62.6958 12.8C62.3158 13.56 62.1258 14.41 62.1258 15.35C62.1258 16.13 62.2758 16.82 62.5758 17.42C62.8758 18 63.3058 18.46 63.8658 18.8C64.4258 19.14 65.0858 19.31 65.8458 19.31ZM76.594 23L78.874 6.62H83.074L82.654 9.86L82.474 9.02C82.994 8.04 83.684 7.34 84.544 6.92C85.424 6.48 86.414 6.26 87.514 6.26C88.774 6.26 89.844 6.56 90.724 7.16C91.604 7.74 92.244 8.53 92.644 9.53C93.064 10.53 93.184 11.65 93.004 12.89L91.594 23H87.094L88.414 13.43C88.554 12.49 88.384 11.74 87.904 11.18C87.424 10.6 86.744 10.31 85.864 10.31C85.284 10.31 84.744 10.44 84.244 10.7C83.764 10.96 83.364 11.32 83.044 11.78C82.724 12.24 82.514 12.79 82.414 13.43L81.094 23H76.594ZM102.893 23.36C101.333 23.36 99.963 23.03 98.783 22.37C97.603 21.71 96.683 20.8 96.023 19.64C95.363 18.46 95.033 17.11 95.033 15.59C95.033 14.17 95.273 12.89 95.753 11.75C96.253 10.61 96.923 9.63 97.763 8.81C98.623 7.99 99.603 7.36 100.703 6.92C101.823 6.48 102.993 6.26 104.213 6.26C105.453 6.26 106.543 6.5 107.483 6.98C108.423 7.44 109.153 8.08 109.673 8.9L108.653 9.74L109.943 0.289999H114.503L111.323 23H107.093L107.483 20L108.443 20.69C107.843 21.59 107.043 22.26 106.043 22.7C105.063 23.14 104.013 23.36 102.893 23.36ZM103.553 19.31C104.473 19.31 105.273 19.09 105.953 18.65C106.633 18.19 107.163 17.58 107.543 16.82C107.923 16.06 108.113 15.21 108.113 14.27C108.113 13.51 107.953 12.83 107.633 12.23C107.333 11.63 106.903 11.16 106.343 10.82C105.803 10.48 105.153 10.31 104.393 10.31C103.493 10.31 102.683 10.53 101.963 10.97C101.263 11.41 100.713 12.01 100.313 12.77C99.913 13.51 99.713 14.36 99.713 15.32C99.713 16.1 99.873 16.79 100.193 17.39C100.513 17.99 100.963 18.46 101.543 18.8C102.123 19.14 102.793 19.31 103.553 19.31ZM114.951 23L118.071 0.649998H126.321C127.761 0.649998 129.021 0.909998 130.101 1.43C131.181 1.93 132.021 2.68 132.621 3.68C133.241 4.68 133.551 5.92 133.551 7.4C133.551 8.46 133.361 9.44 132.981 10.34C132.621 11.24 132.091 12.02 131.391 12.68C130.711 13.34 129.881 13.86 128.901 14.24L132.651 23H127.701L123.531 13.04L126.321 14.9H120.741L119.601 23H114.951ZM121.311 10.85H125.301C126.001 10.85 126.611 10.7 127.131 10.4C127.671 10.1 128.091 9.69 128.391 9.17C128.711 8.65 128.871 8.06 128.871 7.4C128.871 6.58 128.601 5.93 128.061 5.45C127.541 4.95 126.831 4.7 125.931 4.7H122.151L121.311 10.85ZM140.383 23.36C139.283 23.36 138.323 23.19 137.503 22.85C136.683 22.51 136.043 22.01 135.583 21.35C135.143 20.67 134.923 19.85 134.923 18.89C134.923 17.81 135.193 16.9 135.733 16.16C136.293 15.4 137.043 14.79 137.983 14.33C138.943 13.87 140.023 13.55 141.223 13.37L146.383 12.56L146.053 15.86L141.853 16.64C141.233 16.76 140.693 16.98 140.233 17.3C139.793 17.6 139.573 18.04 139.573 18.62C139.573 19.12 139.753 19.49 140.113 19.73C140.473 19.95 140.933 20.06 141.493 20.06C142.233 20.06 142.883 19.89 143.443 19.55C144.023 19.21 144.493 18.76 144.853 18.2C145.233 17.64 145.463 17.03 145.543 16.37L146.113 12.2C146.173 11.74 146.093 11.35 145.873 11.03C145.653 10.71 145.343 10.46 144.943 10.28C144.543 10.1 144.103 10.01 143.623 10.01C142.763 10.01 141.993 10.25 141.313 10.73C140.633 11.19 140.123 11.78 139.783 12.5L136.303 10.61C136.723 9.69 137.313 8.91 138.073 8.27C138.833 7.63 139.713 7.14 140.713 6.8C141.713 6.44 142.773 6.26 143.893 6.26C145.273 6.26 146.493 6.52 147.553 7.04C148.633 7.56 149.453 8.28 150.013 9.2C150.593 10.12 150.793 11.19 150.613 12.41L149.143 23H144.913L145.273 20.36L146.473 20.27C145.913 20.99 145.323 21.58 144.703 22.04C144.083 22.5 143.413 22.83 142.693 23.03C141.993 23.25 141.223 23.36 140.383 23.36ZM152.444 23L154.724 6.62H158.924L158.504 9.86L158.324 9.02C158.844 8.04 159.534 7.34 160.394 6.92C161.274 6.48 162.264 6.26 163.364 6.26C164.624 6.26 165.694 6.56 166.574 7.16C167.454 7.74 168.094 8.53 168.494 9.53C168.914 10.53 169.034 11.65 168.854 12.89L167.444 23H162.944L164.264 13.43C164.404 12.49 164.234 11.74 163.754 11.18C163.274 10.6 162.594 10.31 161.714 10.31C161.134 10.31 160.594 10.44 160.094 10.7C159.614 10.96 159.214 11.32 158.894 11.78C158.574 12.24 158.364 12.79 158.264 13.43L156.944 23H152.444ZM170.403 23L173.583 0.289999H178.113L176.073 14.84L174.003 14.3L182.313 6.62H188.283L181.413 13.22L185.973 23H181.143L177.363 14.69L179.793 14.03L174.003 19.49L175.773 16.88L174.933 23H170.403ZM187.981 23L190.261 6.62H194.791L192.511 23H187.981ZM190.471 5.15L191.101 0.649998H195.631L195.001 5.15H190.471ZM195.803 23L198.083 6.62H202.283L201.863 9.86L201.683 9.02C202.203 8.04 202.893 7.34 203.753 6.92C204.633 6.48 205.623 6.26 206.723 6.26C207.983 6.26 209.053 6.56 209.933 7.16C210.813 7.74 211.453 8.53 211.853 9.53C212.273 10.53 212.393 11.65 212.213 12.89L210.803 23H206.303L207.623 13.43C207.763 12.49 207.593 11.74 207.113 11.18C206.633 10.6 205.953 10.31 205.073 10.31C204.493 10.31 203.953 10.44 203.453 10.7C202.973 10.96 202.573 11.32 202.253 11.78C201.933 12.24 201.723 12.79 201.623 13.43L200.303 23H195.803ZM221.172 29.6C219.912 29.6 218.752 29.38 217.692 28.94C216.632 28.5 215.752 27.89 215.052 27.11C214.372 26.35 213.932 25.46 213.732 24.44L218.022 23.21C218.122 23.97 218.482 24.55 219.102 24.95C219.742 25.35 220.542 25.55 221.502 25.55C222.242 25.55 222.892 25.4 223.452 25.1C224.032 24.82 224.502 24.43 224.862 23.93C225.222 23.45 225.442 22.91 225.522 22.31L226.092 18.38L227.202 19.52C226.582 20.44 225.822 21.12 224.922 21.56C224.042 21.98 223.022 22.19 221.862 22.19C220.382 22.19 219.072 21.87 217.932 21.23C216.812 20.59 215.932 19.71 215.292 18.59C214.672 17.45 214.362 16.16 214.362 14.72C214.362 13.48 214.572 12.35 214.992 11.33C215.432 10.29 216.032 9.4 216.792 8.66C217.552 7.9 218.442 7.31 219.462 6.89C220.482 6.47 221.582 6.26 222.762 6.26C224.002 6.26 225.122 6.51 226.122 7.01C227.142 7.49 227.932 8.21 228.492 9.17L227.532 10.19L228.012 6.62H232.242L230.052 22.46C229.872 23.84 229.372 25.06 228.552 26.12C227.752 27.2 226.712 28.05 225.432 28.67C224.172 29.29 222.752 29.6 221.172 29.6ZM222.522 18.11C223.362 18.11 224.092 17.92 224.712 17.54C225.352 17.14 225.842 16.62 226.182 15.98C226.522 15.34 226.692 14.63 226.692 13.85C226.692 13.15 226.552 12.54 226.272 12.02C225.992 11.48 225.592 11.06 225.072 10.76C224.572 10.46 223.962 10.31 223.242 10.31C222.442 10.31 221.722 10.5 221.082 10.88C220.442 11.26 219.932 11.78 219.552 12.44C219.192 13.08 219.012 13.81 219.012 14.63C219.012 15.31 219.152 15.92 219.432 16.46C219.712 16.98 220.112 17.39 220.632 17.69C221.172 17.97 221.802 18.11 222.522 18.11Z" fill="black"/>
</svg>
