<svg width="440" height="47" viewBox="0 0 440 47" fill="none" xmlns="http://www.w3.org/2000/svg">
<path d="M0.68 46L6.92 1.3H15.92L29.66 24.4L23.9 23.98L44.42 1.3H53.72L47.48 46H38.18L42.92 11.86L45.62 12.82L26.24 34.6H25.04L10.88 10.3L14.72 11.86L9.98 46H0.68ZM65.6066 46.72C63.4066 46.72 61.4866 46.38 59.8466 45.7C58.2066 45.02 56.9266 44.02 56.0066 42.7C55.1266 41.34 54.6866 39.7 54.6866 37.78C54.6866 35.62 55.2266 33.8 56.3066 32.32C57.4266 30.8 58.9266 29.58 60.8066 28.66C62.7266 27.74 64.8866 27.1 67.2866 26.74L77.6066 25.12L76.9466 31.72L68.5466 33.28C67.3066 33.52 66.2266 33.96 65.3066 34.6C64.4266 35.2 63.9866 36.08 63.9866 37.24C63.9866 38.24 64.3466 38.98 65.0666 39.46C65.7866 39.9 66.7066 40.12 67.8266 40.12C69.3066 40.12 70.6066 39.78 71.7266 39.1C72.8866 38.42 73.8266 37.52 74.5466 36.4C75.3066 35.28 75.7666 34.06 75.9266 32.74L77.0666 24.4C77.1866 23.48 77.0266 22.7 76.5866 22.06C76.1466 21.42 75.5266 20.92 74.7266 20.56C73.9266 20.2 73.0466 20.02 72.0866 20.02C70.3666 20.02 68.8266 20.5 67.4666 21.46C66.1066 22.38 65.0866 23.56 64.4066 25L57.4466 21.22C58.2866 19.38 59.4666 17.82 60.9866 16.54C62.5066 15.26 64.2666 14.28 66.2666 13.6C68.2666 12.88 70.3866 12.52 72.6266 12.52C75.3866 12.52 77.8266 13.04 79.9466 14.08C82.1066 15.12 83.7466 16.56 84.8666 18.4C86.0266 20.24 86.4266 22.38 86.0666 24.82L83.1266 46H74.6666L75.3866 40.72L77.7866 40.54C76.6666 41.98 75.4866 43.16 74.2466 44.08C73.0066 45 71.6666 45.66 70.2266 46.06C68.8266 46.5 67.2866 46.72 65.6066 46.72ZM89.727 46L94.287 13.24H102.747L101.667 21.1L101.187 19.96C102.307 17.2 103.747 15.34 105.507 14.38C107.307 13.38 109.347 12.88 111.627 12.88H113.547L112.467 20.68H109.647C107.447 20.68 105.567 21.38 104.007 22.78C102.487 24.18 101.527 26.24 101.127 28.96L98.787 46H89.727ZM112.872 46L119.232 0.579998H128.292L124.212 29.68L120.072 28.6L136.692 13.24H148.632L134.892 26.44L144.012 46H134.352L126.792 29.38L131.652 28.06L120.072 38.98L123.612 33.76L121.932 46H112.872ZM164.662 46.72C161.342 46.72 158.462 46.02 156.022 44.62C153.582 43.18 151.702 41.24 150.382 38.8C149.102 36.36 148.462 33.66 148.462 30.7C148.462 28.18 148.902 25.84 149.782 23.68C150.662 21.48 151.902 19.54 153.502 17.86C155.102 16.18 156.962 14.88 159.082 13.96C161.202 13 163.502 12.52 165.982 12.52C169.302 12.52 172.102 13.18 174.382 14.5C176.662 15.78 178.382 17.54 179.542 19.78C180.742 22.02 181.342 24.56 181.342 27.4C181.342 28.16 181.282 28.92 181.162 29.68C181.042 30.44 180.882 31.26 180.682 32.14H156.082L156.562 25.54H176.002L171.502 28.54C172.022 26.86 172.122 25.36 171.802 24.04C171.482 22.72 170.802 21.68 169.762 20.92C168.762 20.12 167.482 19.72 165.922 19.72C163.882 19.72 162.262 20.24 161.062 21.28C159.862 22.32 158.982 23.7 158.422 25.42C157.902 27.14 157.642 29.04 157.642 31.12C157.642 32.76 157.922 34.18 158.482 35.38C159.042 36.54 159.862 37.42 160.942 38.02C162.022 38.62 163.322 38.92 164.842 38.92C166.482 38.92 167.922 38.58 169.162 37.9C170.402 37.22 171.362 36.32 172.042 35.2L179.122 38.86C178.362 40.46 177.262 41.86 175.822 43.06C174.382 44.22 172.702 45.12 170.782 45.76C168.902 46.4 166.862 46.72 164.662 46.72ZM199.734 46.36C195.694 46.36 192.694 45.26 190.734 43.06C188.774 40.82 188.054 37.78 188.574 33.94L190.374 21.04H184.854L185.934 13.24H186.054C187.734 13.24 189.114 12.78 190.194 11.86C191.314 10.94 191.994 9.64 192.234 7.96L192.534 5.8H201.654L200.574 13.24H208.134L207.054 21.04H199.494L197.694 33.82C197.534 34.94 197.574 35.86 197.814 36.58C198.054 37.26 198.514 37.76 199.194 38.08C199.914 38.4 200.874 38.56 202.074 38.56C202.434 38.56 202.774 38.56 203.094 38.56C203.454 38.52 203.894 38.46 204.414 38.38L203.754 46C203.154 46.16 202.474 46.26 201.714 46.3C200.994 46.34 200.334 46.36 199.734 46.36ZM209.743 46L215.982 1.3H246.583L245.443 9.4H224.143L222.583 20.74H240.883L239.742 28.84H221.443L219.043 46H209.743ZM244.297 46L248.857 13.24H257.917L253.357 46H244.297ZM249.277 10.3L250.537 1.3H259.597L258.337 10.3H249.277ZM276.082 46.36C272.042 46.36 269.042 45.26 267.082 43.06C265.122 40.82 264.402 37.78 264.922 33.94L266.722 21.04H261.202L262.282 13.24H262.402C264.082 13.24 265.462 12.78 266.542 11.86C267.662 10.94 268.342 9.64 268.582 7.96L268.882 5.8H278.002L276.922 13.24H284.482L283.402 21.04H275.842L274.042 33.82C273.882 34.94 273.922 35.86 274.162 36.58C274.402 37.26 274.862 37.76 275.542 38.08C276.262 38.4 277.222 38.56 278.422 38.56C278.782 38.56 279.122 38.56 279.442 38.56C279.802 38.52 280.242 38.46 280.762 38.38L280.102 46C279.502 46.16 278.822 46.26 278.062 46.3C277.342 46.34 276.682 46.36 276.082 46.36ZM289.87 46L291.19 37H300.19L298.87 46H289.87ZM327.501 46.72C324.341 46.72 321.501 46.02 318.981 44.62C316.501 43.22 314.541 41.3 313.101 38.86C311.701 36.42 311.001 33.66 311.001 30.58C311.001 28.06 311.481 25.7 312.441 23.5C313.401 21.3 314.721 19.38 316.401 17.74C318.081 16.1 320.021 14.82 322.221 13.9C324.461 12.98 326.861 12.52 329.421 12.52C331.901 12.52 334.161 12.96 336.201 13.84C338.241 14.68 339.961 15.86 341.361 17.38C342.761 18.9 343.721 20.68 344.241 22.72L336.261 25.84C335.821 24.2 334.981 22.92 333.741 22C332.501 21.08 331.021 20.62 329.301 20.62C327.501 20.62 325.921 21.08 324.561 22C323.241 22.92 322.201 24.14 321.441 25.66C320.721 27.18 320.361 28.82 320.361 30.58C320.361 32.18 320.661 33.58 321.261 34.78C321.861 35.98 322.701 36.92 323.781 37.6C324.901 38.28 326.181 38.62 327.621 38.62C329.501 38.62 331.141 38.12 332.541 37.12C333.941 36.12 334.981 34.8 335.661 33.16L343.281 36.82C342.521 38.74 341.361 40.46 339.801 41.98C338.281 43.46 336.461 44.62 334.341 45.46C332.221 46.3 329.941 46.72 327.501 46.72ZM365.005 46.72C361.885 46.72 359.065 46.04 356.545 44.68C354.025 43.28 352.025 41.36 350.545 38.92C349.065 36.48 348.325 33.7 348.325 30.58C348.325 28.06 348.805 25.7 349.765 23.5C350.725 21.3 352.065 19.38 353.785 17.74C355.505 16.1 357.485 14.82 359.725 13.9C361.965 12.98 364.365 12.52 366.925 12.52C370.045 12.52 372.865 13.22 375.385 14.62C377.905 15.98 379.885 17.88 381.325 20.32C382.805 22.72 383.545 25.5 383.545 28.66C383.545 31.18 383.065 33.54 382.105 35.74C381.145 37.9 379.805 39.82 378.085 41.5C376.365 43.14 374.385 44.42 372.145 45.34C369.905 46.26 367.525 46.72 365.005 46.72ZM365.125 38.62C366.925 38.62 368.505 38.18 369.865 37.3C371.225 36.38 372.285 35.16 373.045 33.64C373.805 32.12 374.185 30.42 374.185 28.54C374.185 26.98 373.885 25.62 373.285 24.46C372.685 23.26 371.825 22.32 370.705 21.64C369.625 20.96 368.325 20.62 366.805 20.62C365.005 20.62 363.405 21.08 362.005 22C360.645 22.88 359.585 24.08 358.825 25.6C358.065 27.12 357.685 28.82 357.685 30.7C357.685 32.26 357.985 33.64 358.585 34.84C359.185 36 360.045 36.92 361.165 37.6C362.285 38.28 363.605 38.62 365.125 38.62ZM386.622 46L391.182 13.24H399.582L398.562 20.86L397.662 19.6C398.702 17.04 400.102 15.22 401.862 14.14C403.622 13.06 405.722 12.52 408.162 12.52C410.882 12.52 413.182 13.22 415.062 14.62C416.942 15.98 418.162 17.82 418.722 20.14L415.482 20.38C417.002 17.54 418.882 15.52 421.122 14.32C423.362 13.12 425.842 12.52 428.562 12.52C431.002 12.52 433.082 13.06 434.802 14.14C436.522 15.22 437.782 16.72 438.582 18.64C439.422 20.52 439.662 22.7 439.302 25.18L436.422 46H427.422L430.062 26.86C430.262 25.58 430.182 24.48 429.822 23.56C429.502 22.64 428.962 21.92 428.202 21.4C427.442 20.88 426.462 20.62 425.262 20.62C424.102 20.62 423.042 20.88 422.082 21.4C421.162 21.92 420.402 22.64 419.802 23.56C419.242 24.48 418.862 25.58 418.662 26.86L416.022 46H407.022L409.662 26.86C409.862 25.58 409.782 24.48 409.422 23.56C409.102 22.64 408.562 21.92 407.802 21.4C407.042 20.88 406.062 20.62 404.862 20.62C403.702 20.62 402.642 20.88 401.682 21.4C400.762 21.92 400.002 22.64 399.402 23.56C398.842 24.48 398.462 25.58 398.262 26.86L395.622 46H386.622Z" fill="black"/>
</svg>
